<svg width="48" height="48" viewBox="0 0 48 48" fill="none" xmlns="http://www.w3.org/2000/svg">
<path d="M33.9325 6.0115C29.83 5.82588 28.63 7.93359 28.4746 9.01637C28.4746 9.48042 29.1929 9.41448 29.5035 9.25973C31.0386 8.55232 35.0977 8.65646 35.0977 13.6682C35.0977 18.6799 28.2604 18.386 24.8417 17.6126C24.8417 17.6126 18.7347 16.4061 14.8187 16.2205C10.9333 16.3111 6.34987 19.2368 4.5629 20.8609C3.78593 21.7117 3.21097 22.9492 7.12691 21.093C11.0429 19.2368 19.947 20.7836 23.9095 21.789C26.4735 22.3304 32.5339 22.9956 36.2634 21.325C39.9928 19.6544 40.5894 13.3244 40.2133 11.6178C39.9783 10.5511 37.8133 6.23109 33.9325 6.0115Z" fill="currentColor"/>
<path d="M22.5108 26.1975C12.4412 24.1557 7.26328 26.8049 5.86473 28.2744C4.93237 29.3881 6.11664 29.2911 6.89362 29.2138C6.89362 29.2138 10.3467 28.9511 15.3067 29.2178C20.4267 29.7307 25.0667 31.2978 26.7064 31.9981C27.8719 32.4621 29.76 34.0178 27.4057 35.9425C25.168 37.9843 20.64 36.4711 19.9467 35.7778C19.4667 35.4044 18.9502 34.5739 18.7813 35.2464C18.6133 36.2044 20.1798 40.815 25.541 41.5111C29.8298 42.0679 32.6114 37.2573 33.4661 34.7824C33.4661 34.7824 33.6992 33.7151 37.4286 32.2301C41.1581 30.7452 43.3336 26.8162 43.9552 25.0374C44.1213 24.562 43.862 23.738 42.5567 25.0374C41.2513 26.3367 38.6133 27.9911 35.5733 28.3644C31.7333 28.2578 32.5803 28.2393 22.5108 26.1975Z" fill="currentColor"/>
</svg>
