<svg width="72" height="72" viewBox="0 0 72 72" fill="none" xmlns="http://www.w3.org/2000/svg">
<path d="M47.919 15.0138C42.9961 14.7911 41.556 17.3203 41.3696 18.6196C41.3696 19.1765 42.2314 19.0974 42.6042 18.9117C44.4464 18.0628 49.3173 18.1878 49.3173 24.2018C49.3173 30.2159 41.1124 29.8632 37.01 28.9351C37.01 28.9351 29.6816 27.4873 24.9825 27.2645C20.32 27.3733 14.8198 30.8841 12.6755 32.8331C11.7431 33.854 11.0532 35.339 15.7523 33.1116C20.4514 30.8841 31.1364 32.7403 35.8914 33.9468C38.9682 34.5965 46.2407 35.3947 50.7161 33.39C55.1914 31.3853 55.9073 23.7893 55.456 21.7413C55.1739 20.4613 52.576 15.2773 47.919 15.0138Z" fill="white"/>
<path d="M34.2129 39.237C22.1294 36.7868 15.9159 39.9659 14.2377 41.7293C13.1188 43.0657 14.54 42.9494 15.4723 42.8566C15.4723 42.8566 19.616 42.5413 25.568 42.8613C31.712 43.4768 37.28 45.3573 39.2477 46.1977C40.6462 46.7546 42.912 48.6213 40.0868 50.931C37.4016 53.3812 31.968 51.5653 31.136 50.7333C30.56 50.2853 29.9402 49.2887 29.7376 50.0957C29.536 51.2453 31.4158 56.778 37.8491 57.6133C42.9958 58.2815 46.3337 52.5088 47.3593 49.5389C47.3593 49.5389 47.639 48.2581 52.1144 46.4761C56.5897 44.6942 59.2003 39.9795 59.9462 37.8448C60.1456 37.2744 59.8344 36.2856 58.268 37.8448C56.7016 39.404 53.536 41.3893 49.888 41.8373C45.28 41.7093 46.2964 41.6872 34.2129 39.237Z" fill="white"/>
</svg>
