<svg width="152" height="152" viewBox="0 0 152 152" fill="none" xmlns="http://www.w3.org/2000/svg">
<path d="M101.162 31.6961C90.7691 31.2259 87.7291 36.5654 87.3354 39.3085C87.3354 40.4841 89.1549 40.317 89.9419 39.925C93.8309 38.1329 104.114 38.3967 104.114 51.0931C104.114 63.7894 86.7926 63.0449 78.1319 61.0856C78.1319 61.0856 62.6609 58.029 52.7405 57.5588C42.8975 57.7884 31.286 65.2001 26.759 69.3147C24.7907 71.4699 23.3341 74.6049 33.2545 69.9025C43.1749 65.2001 65.732 69.1188 75.7705 71.6659C82.2659 73.0374 97.6189 74.7224 107.067 70.4903C116.515 66.2582 118.026 50.2222 117.073 45.8987C116.478 43.1964 110.993 32.2524 101.162 31.6961Z" fill="white"/>
<path d="M72.2269 82.834C46.7174 77.6614 33.6 84.3727 30.057 88.0954C27.695 90.9168 30.6952 90.6712 32.6635 90.4753C32.6635 90.4753 41.4112 89.8098 53.9766 90.4853C66.9472 91.7848 78.7019 95.7547 82.8559 97.5288C85.8084 98.7044 90.5917 102.645 84.6274 107.521C78.9586 112.694 67.4877 108.86 65.7312 107.104C64.5152 106.158 63.2069 104.054 62.779 105.758C62.3535 108.185 66.3219 119.865 79.9034 121.628C90.7686 123.039 97.8152 110.852 99.9804 104.582C99.9804 104.582 100.571 101.879 110.019 98.1166C119.467 94.3548 124.978 84.4014 126.553 79.895C126.974 78.6907 126.317 76.6034 123.01 79.895C119.703 83.1867 113.02 87.3778 105.319 88.3235C95.5908 88.0533 97.7365 88.0066 72.2269 82.834Z" fill="white"/>
</svg>
