<svg width="192" height="192" viewBox="0 0 192 192" fill="none" xmlns="http://www.w3.org/2000/svg">
<path d="M127.784 40.0368C114.656 39.4428 110.816 46.1875 110.319 49.6524C110.319 51.1373 112.617 50.9263 113.611 50.4311C118.524 48.1674 131.513 48.5007 131.513 64.5382C131.513 80.5757 109.633 79.6352 98.6934 77.1603C98.6934 77.1603 79.151 73.2994 66.6199 72.7054C54.1867 72.9955 39.5196 82.3577 33.8013 87.555C31.315 90.2774 29.4751 94.2373 42.0061 88.2975C54.5371 82.3577 83.0303 87.3075 95.7105 90.5249C103.915 92.2574 123.309 94.3858 135.243 89.04C147.177 83.6941 149.086 63.4382 147.883 57.9768C147.13 54.5635 140.203 40.7395 127.784 40.0368Z" fill="white"/>
<path d="M91.2344 104.632C59.0118 98.0982 42.4425 106.576 37.9671 111.278C34.9836 114.842 38.7733 114.532 41.2596 114.284C41.2596 114.284 52.3093 113.444 68.1813 114.297C84.5653 115.938 99.4133 120.953 104.661 123.194C108.39 124.679 114.432 129.657 106.898 135.816C99.7376 142.35 85.248 137.508 83.0293 135.289C81.4933 134.094 79.8406 131.436 79.3001 133.589C78.7627 136.654 83.7755 151.408 100.931 153.635C114.655 155.417 123.556 140.023 126.291 132.104C126.291 132.104 127.037 128.688 138.972 123.936C150.906 119.185 157.868 106.612 159.857 100.92C160.388 99.3984 159.558 96.7617 155.381 100.92C151.204 105.077 142.763 110.372 133.035 111.566C120.747 111.225 123.457 111.166 91.2344 104.632Z" fill="white"/>
</svg>
