<svg width="512" height="512" viewBox="0 0 512 512" fill="none" xmlns="http://www.w3.org/2000/svg">
<rect width="512" height="512" rx="96" fill="#1A1B2E"/>
<path d="M340.757 106.765C305.749 105.181 295.509 123.167 294.183 132.407C294.183 136.367 300.312 135.804 302.963 134.483C316.063 128.447 350.7 129.335 350.7 172.102C350.7 214.869 292.355 212.361 263.182 205.761C263.182 205.761 211.069 195.465 177.653 193.882C144.497 194.655 105.385 219.621 90.1365 233.48C83.5063 240.74 78.6 251.3 112.016 235.46C145.432 219.621 221.414 232.82 255.228 241.4C277.107 246.02 328.822 251.696 360.647 237.44C392.472 223.185 397.563 169.169 394.353 154.605C392.348 145.503 373.873 108.639 340.757 106.765Z" fill="white"/>
<path d="M243.292 279.019C157.365 261.595 113.18 284.202 101.245 296.742C93.2892 306.245 103.395 305.418 110.025 304.758C110.025 304.758 139.491 302.516 181.817 304.792C225.507 309.169 265.102 322.541 279.094 328.517C289.04 332.477 305.152 345.752 285.062 362.176C265.967 379.6 227.328 366.687 221.411 360.771C217.315 357.585 212.908 350.498 211.467 356.237C210.033 364.411 223.401 403.755 269.149 409.695C305.748 414.447 329.484 373.396 336.777 352.277C336.777 352.277 338.766 343.169 370.591 330.497C402.415 317.826 420.98 284.299 426.284 269.119C427.702 265.063 425.488 258.032 414.35 269.119C403.211 280.207 380.7 294.324 354.759 297.51C321.991 296.6 329.218 296.442 243.292 279.019Z" fill="white"/>
</svg>
