<svg width="384" height="384" viewBox="0 0 384 384" fill="none" xmlns="http://www.w3.org/2000/svg">
<path d="M255.568 80.0736C229.312 78.8856 221.632 92.375 220.638 99.3048C220.638 102.275 225.234 101.853 227.222 100.862C237.047 96.3349 263.025 97.0014 263.025 129.076C263.025 161.151 219.266 159.27 197.387 154.321C197.387 154.321 158.302 146.599 133.24 145.411C108.373 145.991 79.0392 164.715 67.6026 175.11C62.63 180.555 58.9502 188.475 84.0122 176.595C109.074 164.715 166.061 174.615 191.421 181.05C207.831 184.515 246.617 188.772 270.486 178.08C294.354 167.388 298.172 126.876 295.765 115.954C294.261 109.127 280.405 81.479 255.568 80.0736Z" fill="white"/>
<path d="M182.469 209.264C118.024 196.196 84.885 213.151 75.9343 222.556C69.9671 229.684 77.5465 229.063 82.5191 228.568C82.5191 228.568 104.619 226.887 136.363 228.594C169.131 231.877 198.827 241.906 209.321 246.388C216.78 249.358 228.864 259.314 213.796 271.632C199.475 284.7 170.496 275.015 166.059 270.578C162.987 268.188 159.681 262.873 158.6 267.177C157.525 273.308 167.551 302.816 201.862 307.271C229.311 310.835 247.113 280.047 252.583 264.207C252.583 264.207 254.075 257.376 277.943 247.873C301.812 238.369 315.735 213.224 319.713 201.839C320.776 198.797 319.117 193.523 310.763 201.839C302.409 210.155 285.525 220.743 266.069 223.132C241.493 222.45 246.914 222.332 182.469 209.264Z" fill="white"/>
</svg>
