<svg width="128" height="128" viewBox="0 0 128 128" fill="none" xmlns="http://www.w3.org/2000/svg">
<path d="M85.1889 26.6915C76.4371 26.2955 73.8771 30.792 73.5456 33.1019C73.5456 34.0919 75.0778 33.9512 75.7405 33.6211C79.0154 32.112 87.6748 32.3341 87.6748 43.0258C87.6748 53.7175 73.0884 53.0905 65.7953 51.4405C65.7953 51.4405 52.767 48.8666 44.413 48.4706C36.1241 48.664 26.3461 54.9054 22.5339 58.3703C20.8763 60.1853 19.6497 62.8252 28.0038 58.8653C36.3578 54.9054 55.3532 58.2053 63.8066 60.3503C69.2765 61.5052 82.2054 62.9242 90.1616 59.3603C98.1178 55.7964 99.3905 42.2924 98.5881 38.6515C98.0867 36.376 93.4681 27.16 85.1889 26.6915Z" fill="white"/>
<path d="M60.8226 69.755C39.3409 65.3991 28.2947 71.0508 25.3111 74.1857C23.3221 76.5616 25.8485 76.3548 27.5061 76.1898C27.5061 76.1898 34.8726 75.6293 45.4539 76.1982C56.3766 77.2925 66.2752 80.6356 69.7734 82.1296C72.2597 83.1196 76.2877 86.4382 71.2651 90.5443C66.4914 94.9002 56.8317 91.672 55.3526 90.1929C54.3286 89.3964 53.2268 87.6246 52.8664 89.0594C52.5081 91.1031 55.85 100.939 67.287 102.424C76.4367 103.612 82.3707 93.3493 84.194 88.0694C84.194 88.0694 84.6912 85.7925 92.6474 82.6246C100.604 79.4567 105.245 71.0749 106.571 67.2801C106.925 66.2659 106.372 64.5081 103.587 67.2801C100.803 70.052 95.1748 73.5813 88.6895 74.3778C80.4975 74.1502 82.3044 74.1108 60.8226 69.755Z" fill="white"/>
</svg>
