<svg width="96" height="96" viewBox="0 0 96 96" fill="none" xmlns="http://www.w3.org/2000/svg">
<path d="M63.8919 20.0184C57.3281 19.7214 55.408 23.0937 55.1594 24.8262C55.1594 25.5687 56.3086 25.4632 56.8056 25.2156C59.2618 24.0837 65.7563 24.2503 65.7563 32.2691C65.7563 40.2879 54.8166 39.8176 49.3467 38.5802C49.3467 38.5802 39.5755 36.6497 33.31 36.3527C27.0933 36.4978 19.7598 41.1788 16.9006 43.7775C15.6575 45.1387 14.7376 47.1186 21.0031 44.1487C27.2686 41.1788 41.5151 43.6538 47.8552 45.2625C51.9576 46.1287 61.6543 47.1929 67.6214 44.52C73.5886 41.8471 74.5431 31.7191 73.9413 28.9884C73.5652 27.2818 70.1013 20.3698 63.8919 20.0184Z" fill="white"/>
<path d="M45.6172 52.316C29.5059 49.0491 21.2213 53.2878 18.9836 55.639C17.4918 57.421 19.3866 57.2658 20.6298 57.1421C20.6298 57.1421 26.1547 56.7218 34.0907 57.1484C42.2827 57.9691 49.7067 60.4764 52.3303 61.597C54.195 62.3394 57.216 64.8284 53.4491 67.908C49.8688 71.1749 42.624 68.7538 41.5147 67.6444C40.7467 67.0471 39.9203 65.7182 39.6501 66.7943C39.3813 68.3271 41.8877 75.704 50.4655 76.8177C57.3277 77.7087 61.7782 70.0117 63.1457 66.0518C63.1457 66.0518 63.5187 64.3441 69.4858 61.9682C75.453 59.5923 78.9338 53.306 79.9283 50.4598C80.1941 49.6992 79.7791 48.3809 77.6906 50.4598C75.6021 52.5387 71.3813 55.1858 66.5173 55.7831C60.3733 55.6124 61.7285 55.5829 45.6172 52.316Z" fill="white"/>
</svg>
