<svg width="144" height="144" viewBox="0 0 144 144" fill="none" xmlns="http://www.w3.org/2000/svg">
<path d="M95.8379 30.0276C85.9921 29.5821 83.1121 34.6406 82.7391 37.2393C82.7391 38.353 84.4629 38.1948 85.2084 37.8233C88.8927 36.1256 98.6345 36.3755 98.6345 48.4036C98.6345 60.4318 82.2249 59.7264 74.02 57.8702C74.02 57.8702 59.3632 54.9746 49.965 54.5291C40.64 54.7466 29.6397 61.7682 25.351 65.6662C23.4862 67.7081 22.1063 70.678 31.5046 66.2231C40.9028 61.7682 62.2727 65.4806 71.7828 67.8937C77.9365 69.193 92.4814 70.7893 101.432 66.78C110.383 62.7706 111.815 47.5786 110.912 43.4826C110.348 40.9226 105.152 30.5546 95.8379 30.0276Z" fill="white"/>
<path d="M68.4258 78.474C44.2589 73.5736 31.8319 79.9318 28.4754 83.4585C26.2377 86.1314 29.0799 85.8988 30.9447 85.7131C30.9447 85.7131 39.232 85.0826 51.136 85.7226C63.424 86.9537 74.56 90.7146 78.4954 92.3954C81.2925 93.5092 85.824 97.2426 80.1737 101.862C74.8032 106.762 63.936 103.131 62.272 101.467C61.12 100.571 59.8805 98.5774 59.4751 100.191C59.072 102.491 62.8316 113.556 75.6983 115.227C85.9916 116.563 92.6674 105.018 94.7186 99.0777C94.7186 99.0777 95.278 96.5162 104.229 92.9523C113.179 89.3884 118.401 79.9589 119.892 75.6897C120.291 74.5488 119.669 72.5713 116.536 75.6897C113.403 78.8081 107.072 82.7786 99.776 83.6746C90.56 83.4186 92.5928 83.3743 68.4258 78.474Z" fill="white"/>
</svg>
